# xmcd
#
# Track frame offsets: 
#        150
#        17790
#        39594
#        54615
#        74839
#        96716
#        130260
#        146427
#        170798
#        191461
#        219958
#        235982
#
# Disc length: 3403 seconds
#
# Revision: 0
# Processed by: cddbd v1.5.2PL0 Copyright (c) Steve Scherf et al.
# Submitted via: ExactAudioCopy v0.99pb5
#
DISCID=ba0d490c
DTITLE=Fred Clayton - Keepin' the Blues Alive
DYEAR=1900
DGENRE=Blues
TTITLE0=Jazzman
TTITLE1=Keepin' the Blues Alive
TTITLE2=Swlf in my Shoes
TTITLE3=Mimikin
TTITLE4=Happy Snappy
TTITLE5=Here I Am
TTITLE6=Cheap'n' Lonely
TTITLE7=Strange Feelin
TTITLE8=Rhythm'n' Shoues
TTITLE9=Another Day in the Life
TTITLE10=Do U Remember
TTITLE11=Bye Bye Baby...
EXTD=
EXTT0=
EXTT1=
EXTT2=
EXTT3=
EXTT4=
EXTT5=
EXTT6=
EXTT7=
EXTT8=
EXTT9=
EXTT10=
EXTT11=
PLAYORDER=
